{"title":"In Time 2011 - MPEG TS - High Quality - [MAGICUPLOAD]","uid":6873604,"size":5394565301,"categoryP":"video","categoryS":"movies","magnet":"?xt=urn:btih:b9c930c7058f7bacb4bc27570da2f21fff23e8bb&amp;dn=In+Time+2011+-+MPEG+TS+-+High+Quality+-+%5BMAGICUPLOAD%5D&amp;tr=udp%3A%2F%2Ftracker.openbittorrent.com%3A80&amp;tr=udp%3A%2F%2Fopen.demonii.com%3A1337&amp;tr=udp%3A%2F%2Ftracker.coppersurfer.tk%3A6969&amp;tr=udp%3A%2F%2Fexodus.desync.com%3A6969","seeders":0,"leechers":0,"uploader":"XxSTICH666xX","files":2,"time":1323342509,"description":" &lt;a href=&quot;http://s9.postimage.org/rh5kt2w8f/g_ZIy_F.jpg&quot; rel=&quot;nofollow&quot; target=&quot;_NEW&quot;&gt;http://s9.postimage.org/rh5kt2w8f/g_ZIy_F.jpg&lt;/a&gt;\n\nSCREENS\n &lt;a href=&quot;\nhttp://s11.postimage.org/ibdvpx6xf/In_Time_2011_MPEG_TS_High_Quality_MAGICUP.jpg&quot; rel=&quot;nofollow&quot; target=&quot;_NEW&quot;&gt;\nhttp://s11.postimage.org/ibdvpx6xf/In_Time_2011_MPEG_TS_High_Quality_MAGICUP.jpg&lt;/a&gt;\n\nFormat                           : MPEG-TS\nFile size                        : 5.02 GiB\nDuration                         : 1h 44mn\nOverall bit rate mode            : Variable\nOverall bit rate                 : 6 855 Kbps\nMaximum Overall bit rate         : 40.0 Mbps\n\nVideo\nID                               : 4113 (0x1011)\nMenu ID                          : 1 (0x1)\nFormat                           : AVC\nFormat/Info                      : Advanced Video Codec\nFormat profile                   : &lt;a class=&quot;__cf_email__&quot; href=&quot;/cdn-cgi/l/email-protection&quot; data-cfemail=&quot;99d1f0fef1d9d5aab7a9&quot;&gt;[email&amp;#160;protected]&lt;/a&gt;&lt;script cf-hash='f9e31' type=&quot;text/javascript&quot;&gt;\n/* &lt;![CDATA[ */!function(){try{var t=&quot;currentScript&quot;in document?document.currentScript:function(){for(var t=document.getElementsByTagName(&quot;script&quot;),e=t.length;e--;)if(t[e].getAttribute(&quot;cf-hash&quot;))return t[e]}();if(t&amp;&amp;t.previousSibling){var e,r,n,i,c=t.previousSibling,a=c.getAttribute(&quot;data-cfemail&quot;);if(a){for(e=&quot;&quot;,r=parseInt(a.substr(0,2),16),n=2;a.length-n;n+=2)i=parseInt(a.substr(n,2),16)^r,e+=String.fromCharCode(i);e=document.createTextNode(e),c.parentNode.replaceChild(e,c)}}}catch(u){}}();/* ]]&gt; */&lt;/script&gt;\nFormat settings, CABAC           : Yes\nFormat settings, ReFrames        : 2 frames\nFormat settings, GOP             : M=3, N=13\nCodec ID                         : 27\nDuration                         : 1h 44mn\nBit rate mode                    : Variable\nBit rate                         : 6 063 Kbps\nMaximum bit rate                 : 7 200 Kbps\nWidth                            : 720 pixels\nHeight                           : 480 pixels\nDisplay aspect ratio             : 16:9\nFrame rate                       : 29.970 fps\nStandard                         : NTSC\nColor space                      : YUV\nChroma subsampling               : 4:2:0\nBit depth                        : 8 bits\nScan type                        : Interlaced\nScan order                       : Top Field First\nBits/(Pixel*Frame)               : 0.585\nStream size                      : 4.44 GiB (88%)\n\nAudio\nID                               : 4352 (0x1100)\nMenu ID                          : 1 (0x1)\nFormat                           : AC-3\nFormat/Info                      : Audio Coding 3\nMode extension                   : CM (complete main)\nCodec ID                         : 129\nDuration                         : 1h 44mn\nBit rate mode                    : Constant\nBit rate                         : 448 Kbps\nChannel(s)                       : 6 channels\nChannel positions                : Front: L C R, Side: L R, LFE\nSampling rate                    : 48.0 KHz\nBit depth                        : 16 bits\nCompression mode                 : Lossy\nDelay relative to video          : 15ms\nStream size                      : 336 MiB (7%)\n\n\n\nDownload SAMPLE FILE :","torrent":{"xt":"urn:btih:b9c930c7058f7bacb4bc27570da2f21fff23e8bb","amp;dn":"In+Time+2011+-+MPEG+TS+-+High+Quality+-+%5BMAGICUPLOAD%5D","amp;tr":["udp%3A%2F%2Ftracker.openbittorrent.com%3A80","udp%3A%2F%2Fopen.demonii.com%3A1337","udp%3A%2F%2Ftracker.coppersurfer.tk%3A6969","udp%3A%2F%2Fexodus.desync.com%3A6969"],"infoHash":"b9c930c7058f7bacb4bc27570da2f21fff23e8bb","infoHashBuffer":{"type":"Buffer","data":[185,201,48,199,5,143,123,172,180,188,39,87,13,162,242,31,255,35,232,187]},"announce":[],"urlList":[]}}